# xmcd
#
# Track frame offsets:
#	150
#	14924
#	29700
#	49123
#	65173
#	81900
#	101698
#	117224
#	134085
#	155235
#
# Disc length: 2348 seconds
#
# Revision: 0
# Processed by: cddbd v1.5.2PL0 Copyright (c) Steve Scherf et al.
# Submitted via: EasyCDDAExtractor 15.1.0.1
#
DISCID=9b092a0a
DTITLE=Keven Landry - Noël au Havre
DYEAR=1900
DGENRE=Country
TTITLE0=À minuit
TTITLE1=Tu l'sais chérie
TTITLE2=Noël au Havre
TTITLE3=Ho ho ho
TTITLE4=La cuisinière
TTITLE5=Le 24
TTITLE6=Le Père Noël prend un p'tit coup
TTITLE7=La résolution
TTITLE8=Sainte Nuit
TTITLE9=Spécial 150e
EXTD=
EXTT0=
EXTT1=
EXTT2=
EXTT3=
EXTT4=
EXTT5=
EXTT6=
EXTT7=
EXTT8=
EXTT9=
PLAYORDER=
